<svg width="30" height="30" viewBox="0 0 30 30" fill="none" xmlns="http://www.w3.org/2000/svg">
<path d="M14 10.0001H16V12.0001H14V10.0001ZM14 14.0001H16V20.0001H14V14.0001ZM15 5.00009C9.48 5.00009 5 9.48009 5 15.0001C5 20.5201 9.48 25.0001 15 25.0001C20.52 25.0001 25 20.5201 25 15.0001C25 9.48009 20.52 5.00009 15 5.00009ZM15 23.0001C10.59 23.0001 7 19.4101 7 15.0001C7 10.5901 10.59 7.00009 15 7.00009C19.41 7.00009 23 10.5901 23 15.0001C23 19.4101 19.41 23.0001 15 23.0001Z" fill="black"/>
</svg>